# xmcd CD database file generated by OrangeCD 5.2
#
# Track frame offsets:
#	150
#	10040
#	21232
#	31730
#	44000
#	57890
#	67970
#	78465
#	90975
#	102072
#	116640
#	137295
#	155435
#	173892
#	188730
#
# Disc length: 2737 seconds
#
# Revision: 1
# Processed by: cddbd v1.5.1PL0 Copyright (c) Steve Scherf et al.
# Submitted via: OrangeCD 5.2
#
DISCID=af0aaf0f
DTITLE=Entertainment Presents - 35 Years Of Rock and Roll (Vol 2 of 2)
DYEAR=1992
DGENRE=Pop
TTITLE0=Bill Haley and His Comets - (We're Gonna) Rock Around The Clock
TTITLE1=Little Richard - Lucille
TTITLE2=Del Shannon - Runaway
TTITLE3=The Temptations - My Girl
TTITLE4=Van Morrison - Brown Eyed Girl
TTITLE5=The Kinks - You Really Got Me
TTITLE6=The Byrds - Mr. Tambourine Man
TTITLE7=The Beach Boys - Help Me, Rhonda
TTITLE8=Aretha Franklin - Respect
TTITLE9=The Velvet Underground - Sweet Jane
TTITLE10=Sly and The Family Stone - Thank You (Falettinme Be Mice Elf Agin)
TTITLE11=Marvin Gaye - Let's Get It On
TTITLE12=The Allman Brothers Band - Revival (Love is Everywhere)
TTITLE13=James Taylor - Handy Man
TTITLE14=The Clash - Rock The Casbah
EXTD=
EXTT0=
EXTT1=
EXTT2=
EXTT3=
EXTT4=
EXTT5=
EXTT6=
EXTT7=
EXTT8=
EXTT9=
EXTT10=
EXTT11=
EXTT12=
EXTT13=
EXTT14=
PLAYORDER=
